<?xml version="1.0" encoding="utf-8"?>
<!-- Generator: Adobe Illustrator 19.0.0, SVG Export Plug-In . SVG Version: 6.00 Build 0)  -->
<svg version="1.1" xmlns="http://www.w3.org/2000/svg" xmlns:xlink="http://www.w3.org/1999/xlink" x="0px" y="0px"
	 viewBox="0 0 800 600" style="enable-background:new 0 0 800 600;" xml:space="preserve">
<style type="text/css">
	.st0{fill:#262626;}
	.st1{fill:url(#SVGID_1_);}
	.st2{display:none;}
	.st3{display:inline;}
	.st4{fill:#D3205C;}
	.st5{display:inline;fill:#D1194E;stroke:#D1194E;stroke-width:3;stroke-miterlimit:10;}
</style>
<g id="Layer_1">
	<g>
		<g>
			<g>
				<path class="st0" d="M118.5,116.9h-14.8v145.2h36.9v-25.5h-22.2V116.9z M168,115l-19.8,147.1h15l3-22.6h13.6l3,22.6h15L178,115
					H168z M169.8,212.7l3.2-26.9l3.2,26.9H169.8z M238.3,188.5l-19.6-72h-13.4v145.6h14.8v-75.3l21.5,75.3h11.5V116.1h-14.7V188.5z
					 M280.4,115l-19.8,147.1h15l3-22.6h13.6l3,22.6h15L290.4,115H280.4z M282.2,212.7l3.2-26.9l3.2,26.9H282.2z M371.5,116.9h-15
					v145.2h15c10.5,0,19.5-7.3,26.7-21.8c7-14,10.5-31.1,10.5-50.8c0-19.7-3.5-36.8-10.5-50.8C391,124.2,382,116.9,371.5,116.9z
					 M387.1,223.3c-4.4,8.8-9.7,13.3-15.6,13.3h-0.3v-94.3h0.3c5.9,0,11.2,4.5,15.6,13.3c4.6,9.3,7,20.7,7,33.9
					C394.1,202.7,391.8,214,387.1,223.3z M419.9,262.1h36.7v-25.5h-21.9v-34.4h21.9v-25.5h-21.9v-34.4h21.9v-25.5h-36.7V262.1z
					 M482.5,116.9h-14.8v145.2h36.9v-25.5h-22.2V116.9z M584.5,206.5c4.8-10.2,7.2-22.6,7.2-37c0-14.3-2.4-26.7-7.2-36.9
					c-5-10.6-11.3-16.1-18.8-16.1H551v145.2h14.7v-39c0.8,0,1.7-0.1,2.5-0.2l10.5,39.7h15.7l-13.2-49.5
					C582.4,210.8,583.5,208.8,584.5,206.5z M573.9,190c-2.4,5-5.1,7.6-8.2,7.7v-56.1c3,0,5.8,2.6,8.2,7.6c2.6,5.6,4,12.4,4,20.4
					C577.9,177.5,576.5,184.4,573.9,190z M602.9,262.1h36.7v-25.5h-21.9v-34.4h21.9v-25.5h-21.9v-34.4h21.9v-25.5h-36.7V262.1z
					 M686.9,116.2l-11.7,55.3l-11.7-55.3h-15.4l19,90.3v55.5h16.3v-55.5l19-90.3H686.9z"/>
			</g>
		</g>
		<g>
			<g>
				<linearGradient id="SVGID_1_" gradientUnits="userSpaceOnUse" x1="403.0356" y1="257.0752" x2="403.0356" y2="109.98">
					<stop  offset="0" style="stop-color:#EA2738"/>
					<stop  offset="1" style="stop-color:#F1845F"/>
				</linearGradient>
				<path class="st1" d="M118.5,111.9h-14.8v145.2h36.9v-25.5h-22.2V111.9z M168,110l-19.8,147.1h15l3-22.6h13.6l3,22.6h15L178,110
					H168z M169.8,207.7l3.2-26.9l3.2,26.9H169.8z M238.3,183.5l-19.6-72h-13.4v145.6h14.8v-75.3l21.5,75.3h11.5V111.1h-14.7V183.5z
					 M280.4,110l-19.8,147.1h15l3-22.6h13.6l3,22.6h15L290.4,110H280.4z M282.2,207.7l3.2-26.9l3.2,26.9H282.2z M371.5,111.9h-15
					v145.2h15c10.5,0,19.5-7.3,26.7-21.8c7-14,10.5-31.1,10.5-50.8c0-19.7-3.5-36.8-10.5-50.8C391,119.2,382,111.9,371.5,111.9z
					 M387.1,218.3c-4.4,8.8-9.7,13.3-15.6,13.3h-0.3v-94.3h0.3c5.9,0,11.2,4.5,15.6,13.3c4.6,9.3,7,20.7,7,33.9
					C394.1,197.7,391.8,209,387.1,218.3z M419.9,257.1h36.7v-25.5h-21.9v-34.4h21.9v-25.5h-21.9v-34.4h21.9v-25.5h-36.7V257.1z
					 M482.5,111.9h-14.8v145.2h36.9v-25.5h-22.2V111.9z M584.5,201.5c4.8-10.2,7.2-22.6,7.2-37c0-14.3-2.4-26.7-7.2-36.9
					c-5-10.6-11.3-16.1-18.8-16.1H551v145.2h14.7v-39c0.8,0,1.7-0.1,2.5-0.2l10.5,39.7h15.7l-13.2-49.5
					C582.4,205.8,583.5,203.8,584.5,201.5z M573.9,185c-2.4,5-5.1,7.6-8.2,7.7v-56.1c3,0,5.8,2.6,8.2,7.6c2.6,5.6,4,12.4,4,20.4
					C577.9,172.5,576.5,179.4,573.9,185z M602.9,257.1h36.7v-25.5h-21.9v-34.4h21.9v-25.5h-21.9v-34.4h21.9v-25.5h-36.7V257.1z
					 M686.9,111.2l-11.7,55.3l-11.7-55.3h-15.4l19,90.3v55.5h16.3v-55.5l19-90.3H686.9z"/>
			</g>
		</g>
	</g>
</g>
<g id="Layer_2" class="st2">
	<g class="st3">
		<polygon class="st4" points="107.4,382.7 107.4,237.5 122.2,237.5 122.2,357.2 144.3,357.2 144.3,382.7 		"/>
	</g>
	<g class="st3">
		<path class="st4" d="M186.5,382.7l-3-22.6h-13.6l-3,22.6h-15l19.8-147.1h10l19.8,147.1H186.5z M179.9,333.4l-3.2-26.9l-3.2,26.9
			H179.9z"/>
	</g>
	<g class="st3">
		<polygon class="st4" points="245.3,382.7 223.8,307.4 223.8,382.7 209,382.7 209,237.2 222.4,237.2 242,309.2 242,236.8 
			256.7,236.8 256.7,382.7 		"/>
	</g>
	<g class="st3">
		<path class="st4" d="M298.9,382.7l-3-22.6h-13.6l-3,22.6h-15l19.8-147.1h10l19.8,147.1H298.9z M292.3,333.4l-3.2-26.9l-3.2,26.9
			H292.3z"/>
	</g>
	<g class="st3">
		<path class="st4" d="M360.2,382.7V237.5h15c10.5,0,19.5,7.3,26.7,21.8c7,14,10.5,31.1,10.5,50.8c0,19.7-3.5,36.7-10.5,50.8
			c-7.2,14.5-16.2,21.8-26.7,21.8H360.2z M375.2,357.2c5.9,0,11.2-4.5,15.6-13.3c4.6-9.3,7-20.6,7-33.8c0-13.2-2.4-24.7-7-33.9
			c-4.4-8.8-9.7-13.3-15.6-13.3h-0.3v94.3H375.2z"/>
	</g>
	<g class="st3">
		<polygon class="st4" points="423.6,382.7 423.6,237.5 460.3,237.5 460.3,263 438.4,263 438.4,297.4 460.3,297.4 460.3,322.9 
			438.4,322.9 438.4,357.2 460.3,357.2 460.3,382.7 		"/>
	</g>
	<g class="st3">
		<polygon class="st4" points="471.4,382.7 471.4,237.5 486.2,237.5 486.2,357.2 508.3,357.2 508.3,382.7 		"/>
	</g>
	<g class="st3">
		<path class="st4" d="M582.4,382.7l-10.5-39.7c-0.8,0.2-1.7,0.2-2.5,0.2v39h-14.7V237.2h14.7c7.5,0,13.8,5.5,18.8,16.1
			c4.8,10.2,7.2,22.6,7.2,36.9c0,14.4-2.4,26.8-7.2,37c-1.1,2.2-2.2,4.3-3.3,6l13.2,49.5H582.4z M569.4,318.3c3,0,5.8-2.6,8.2-7.7
			c2.6-5.6,4-12.5,4-20.4c0-8-1.3-14.8-4-20.4c-2.4-5-5.1-7.6-8.2-7.6V318.3z"/>
	</g>
	<g class="st3">
		<polygon class="st4" points="606.6,382.7 606.6,237.5 643.3,237.5 643.3,263 621.3,263 621.3,297.4 643.3,297.4 643.3,322.9 
			621.3,322.9 621.3,357.2 643.3,357.2 643.3,382.7 		"/>
	</g>
	<g class="st3">
		<polygon class="st4" points="670.7,382.7 670.7,327.2 651.7,236.9 667.2,236.9 678.9,292.1 690.5,236.9 706,236.9 687,327.2 
			687,382.7 		"/>
	</g>
</g>
<g id="Layer_3" class="st2">
	<path class="st5" d="M104.5,229.9h10.8v119.7h22.2v21.5h-32.9V229.9z"/>
	<path class="st5" d="M175.7,228.5l19.3,143.1h-11l-3-22.6h-17.1l-3,22.6h-11l19.3-143.1H175.7z M166.9,326.2h10.9l-5.4-45.7
		L166.9,326.2z"/>
	<path class="st5" d="M242.7,371.1l-25-87.7v87.7h-10.8V229.5h9.9l23.1,85v-85.4h10.7v141.9H242.7z"/>
	<path class="st5" d="M289.5,228.5l19.3,143.1h-11l-3-22.6h-17.1l-3,22.6h-11l19.3-143.1H289.5z M280.7,326.2h10.9l-5.4-45.7
		L280.7,326.2z"/>
	<path class="st5" d="M358.8,371.1V229.9h13c9.8,0,18.1,6.9,25,20.7c6.9,13.8,10.3,30.4,10.3,49.9c0,19.4-3.4,36.1-10.3,49.9
		c-6.9,13.8-15.2,20.7-25,20.7H358.8z M369.6,251.3v98.3h2.3c6.8,0,12.6-4.8,17.4-14.4c4.8-9.6,7.2-21.2,7.2-34.7
		c0-13.6-2.4-25.2-7.2-34.8c-4.8-9.6-10.6-14.4-17.4-14.4H369.6z"/>
	<path class="st5" d="M421,229.9h32.7v21.5h-21.9v38.4h21.9v21.5h-21.9v38.4h21.9v21.5H421V229.9z"/>
	<path class="st5" d="M470,229.9h10.8v119.7H503v21.5H470V229.9z"/>
	<path class="st5" d="M563.8,331.6v39.2H553V229.7h10.7v0.1c0.6-0.1,1.3-0.1,1.9-0.1c6.7,0,12.4,5,17.1,15c4.7,10,7,22,7,36.1
		c0,14.1-2.3,26.2-7,36.2c-1.2,2.5-2.4,4.7-3.7,6.5l12.8,47.9h-11.5l-10.6-40.1c-1.3,0.4-2.7,0.7-4,0.7
		C565.1,331.8,564.4,331.8,563.8,331.6z M563.8,250.9v59.7c0.6,0.2,1.2,0.3,1.9,0.3c3.9,0,7.3-2.9,10-8.8c2.8-5.9,4.1-13,4.1-21.3
		c0-8.3-1.4-15.4-4.1-21.2c-2.8-5.9-6.1-8.8-10-8.8C565.1,250.7,564.4,250.8,563.8,250.9z"/>
	<path class="st5" d="M606.5,229.9h32.7v21.5h-21.9v38.4h21.9v21.5h-21.9v38.4h21.9v21.5h-32.7V229.9z"/>
	<path class="st5" d="M650.6,229.2h11.4l13.3,62.9l13.3-62.9h11.4l-18.5,88.1v53.7h-12.3v-53.7L650.6,229.2z"/>
</g>
</svg>
